:FULLY-SPECIFIED
:FORCE-ALL-JOINTS-BE-3DOF
:DEGREES
68
root 6.04396 16.7458 -27.9713 10.4252 3.48721 -3.71653
lfemur -32.4681 10.8783 -16.6367
ltibia 49.1557 -0 0
lfoot -22.083 -9.96112 0.0795191
ltoes 30.6503 -0 0
rfemur -17.062 -2.63752 21.0991
rtibia 32.243 -0 0
rfoot -27.0586 -15.5642 0.0296065
rtoes -9.08654 0 0
lowerback -3.70299 2.40269 3.04818
upperback -1.53141 3.1033 -0.0580811
thorax 0.659265 1.54332 -1.63993
lowerneck -9.83163 -2.66112 2.1759
upperneck -4.94237 -3.71032 2.02436
head 0.0796061 -1.86221 0.152535
lclavicle -1.25048e-014 -7.7526e-015 0
lhumerus -41.2768 -12.2928 94.1679
lradius 44.2255 -0 0
lwrist 8.40933 0 0
lhand -9.15043 2.80576 0.0214392
lfingers 7.12502 -0 0
lthumb 16.7979 32.0507 0.00592521
rclavicle -1.25048e-014 -7.7526e-015 0
rhumerus -40.0404 0.395836 -90.2824
rradius 43.3794 -0 0
rwrist 6.13161 0 0
rhand -23.5658 -20.7226 0.0893555
rfingers 7.12502 -0 0
rthumb 2.89606 -50.6582 0.0887458
69
root 6.07777 16.7404 -27.9332 10.3218 3.66693 -3.81345
lfemur -32.4617 10.2827 -16.2188
ltibia 48.9158 -0 0
lfoot -21.9404 -9.47038 0.091765
ltoes 29.8572 -0 0
rfemur -16.9703 -3.06868 21.0394
rtibia 32.5423 -0 0
rfoot -26.9955 -15.1513 0.0341643
rtoes -9.49937 0 0
lowerback -3.64838 2.43937 3.04397
upperback -1.55911 3.15486 0.00645905
thorax 0.598192 1.5679 -1.57367
lowerneck -9.8308 -2.73982 2.20367
upperneck -4.87142 -3.81955 1.9905
head 0.0997047 -1.91623 0.133256
lclavicle -1.25048e-014 -7.7526e-015 0
lhumerus -41.4468 -12.048 94.0855
lradius 44.3136 -0 0
lwrist 8.57401 0 0
lhand -8.79058 2.85823 0.0247392
lfingers 7.12502 -0 0
lthumb 17.1436 32.0658 0.00683719
rclavicle -1.25048e-014 -7.7526e-015 0
rhumerus -40.0759 0.36635 -89.9213
rradius 43.6256 -0 0
rwrist 5.92689 0 0
rhand -23.2752 -20.4519 0.103111
rfingers 7.12502 -0 0
rthumb 3.17662 -50.3796 0.102407
70
root 6.11158 16.735 -27.8952 10.2181 3.84647 -3.91071
lfemur -32.4598 9.68703 -15.8016
ltibia 48.6758 -0 0
lfoot -21.7977 -8.9796 0.102789
ltoes 29.0642 -0 0
rfemur -16.8782 -3.49974 20.979
rtibia 32.8417 -0 0
rfoot -26.9323 -14.7383 0.0382671
rtoes -9.9122 0 0
lowerback -3.59377 2.47605 3.03979
upperback -1.58675 3.20644 0.0709775
thorax 0.537147 1.59254 -1.50744
lowerneck -9.83002 -2.81852 2.23145
upperneck -4.80039 -3.92874 1.95649
head 0.119822 -1.97024 0.113958
lclavicle -1.25048e-014 -7.7526e-015 0
lhumerus -41.6171 -11.8034 94.0025
lradius 44.4017 -0 0
lwrist 8.73869 0 0
lhand -8.43074 2.91072 0.0277095
lfingers 7.12502 -0 0
lthumb 17.4894 32.0809 0.00765808
rclavicle -1.25048e-014 -7.7526e-015 0
rhumerus -40.1116 0.337088 -89.5601
rradius 43.8718 -0 0
rwrist 5.72216 0 0
rhand -22.9845 -20.1811 0.115492
rfingers 7.12502 -0 0
rthumb 3.45725 -50.101 0.114704
71
root 6.14539 16.7297 -27.8571 10.1141 4.02584 -4.00832
lfemur -32.4623 9.09136 -15.3853
ltibia 48.4358 -0 0
lfoot -21.6549 -8.4888 0.112591
ltoes 28.2711 -0 0
rfemur -16.7856 -3.93071 20.9179
rtibia 33.141 -0 0
rfoot -26.8691 -14.3254 0.0419146
rtoes -10.325 0 0
lowerback -3.53916 2.51273 3.03564
upperback -1.61433 3.25806 0.135474
thorax 0.476129 1.61726 -1.44123
lowerneck -9.82927 -2.89722 2.25922
upperneck -4.7293 -4.03789 1.92235
head 0.139958 -2.02424 0.0946401
lclavicle -1.25048e-014 -7.7526e-015 0
lhumerus -41.7876 -11.5591 93.9189
lradius 44.4899 -0 0
lwrist 8.90338 0 0
lhand -8.07089 2.96323 0.0303502
lfingers 7.12502 -0 0
lthumb 17.8351 32.096 0.00838783
rclavicle -1.25048e-014 -7.7526e-015 0
rhumerus -40.1475 0.308052 -89.1989
rradius 44.1181 -0 0
rwrist 5.51743 0 0
rhand -22.6938 -19.9102 0.1265
rfingers 7.12502 -0 0
rthumb 3.73793 -49.8224 0.125636
72
root 6.1792 16.7243 -27.819 10.0097 4.20503 -4.10629
lfemur -32.4691 8.49572 -14.9695
ltibia 48.1959 -0 0
lfoot -21.5121 -7.99798 0.121168
ltoes 27.4781 -0 0
rfemur -16.6925 -4.36158 20.856
rtibia 33.4404 -0 0
rfoot -26.8059 -13.9125 0.0451065
rtoes -10.7379 0 0
lowerback -3.48456 2.54942 3.03153
upperback -1.64185 3.3097 0.199949
thorax 0.415139 1.64205 -1.37505
lowerneck -9.82856 -2.97593 2.287
upperneck -4.65812 -4.147 1.88806
head 0.160114 -2.07824 0.0753024
lclavicle -1.25048e-014 -7.7526e-015 0
lhumerus -41.9583 -11.315 93.8345
lradius 44.578 -0 0
lwrist 9.06806 0 0
lhand -7.71103 3.01576 0.032661
lfingers 7.12502 -0 0
lthumb 18.1809 32.1111 0.00902642
rclavicle -1.25048e-014 -7.7526e-015 0
rhumerus -40.1836 0.279242 -88.8378
rradius 44.3643 -0 0
rwrist 5.31271 0 0
rhand -22.403 -19.6393 0.136133
rfingers 7.12502 -0 0
rthumb 4.01867 -49.5437 0.135203
73
root 6.21301 16.7189 -27.781 9.90499 4.38404 -4.2046
lfemur -32.4803 7.90014 -14.5543
ltibia 47.9559 -0 0
lfoot -21.3691 -7.50714 0.128522
ltoes 26.685 -0 0
rfemur -16.5988 -4.79234 20.7934
rtibia 33.7397 -0 0
rfoot -26.7427 -13.4995 0.0478428
rtoes -11.1507 0 0
lowerback -3.42995 2.58612 3.02745
upperback -1.66932 3.36138 0.264403
thorax 0.354177 1.66691 -1.3089
lowerneck -9.82789 -3.05463 2.31478
upperneck -4.58687 -4.25607 1.85364
head 0.180288 -2.13223 0.0559451
lclavicle -1.25048e-014 -7.7526e-015 0
lhumerus -42.1292 -11.0711 93.7495
lradius 44.6661 -0 0
lwrist 9.23275 0 0
lhand -7.35118 3.0683 0.0346418
lfingers 7.12502 -0 0
lthumb 18.5266 32.1262 0.00957382
rclavicle -1.25048e-014 -7.7526e-015 0
rhumerus -40.2199 0.250661 -88.4765
rradius 44.6105 -0 0
rwrist 5.10798 0 0
rhand -22.1122 -19.3683 0.14439
rfingers 7.12502 -0 0
rthumb 4.29945 -49.2649 0.143404
74
root 6.24682 16.7136 -27.7429 9.79995 4.56287 -4.30326
lfemur -32.4958 7.30467 -14.1396
ltibia 47.716 -0 0
lfoot -21.2261 -7.01628 0.134651
ltoes 25.892 -0 0
rfemur -16.5046 -5.22301 20.7301
rtibia 34.0391 -0 0
rfoot -26.6794 -13.0866 0.0501232
rtoes -11.5635 0 0
lowerback -3.37535 2.62282 3.02341
upperback -1.69673 3.41309 0.328836
thorax 0.293243 1.69184 -1.24277
lowerneck -9.82726 -3.13333 2.34256
upperneck -4.51555 -4.36509 1.81907
head 0.200481 -2.18621 0.036568
lclavicle -1.25048e-014 -7.7526e-015 0
lhumerus -42.3004 -10.8275 93.6639
lradius 44.7542 -0 0
lwrist 9.39743 0 0
lhand -6.99132 3.12085 0.0362926
lfingers 7.12502 -0 0
lthumb 18.8724 32.1413 0.01003
rclavicle -1.25048e-014 -7.7526e-015 0
rhumerus -40.2563 0.222309 -88.1153
rradius 44.8568 -0 0
rwrist 4.90326 0 0
rhand -21.8213 -19.0973 0.151272
rfingers 7.12502 -0 0
rthumb 4.58026 -48.9861 0.150239
